<?xml version="1.0" standalone="no"?>
<!DOCTYPE svg PUBLIC "-//W3C//DTD SVG 20010904//EN"
 "http://www.w3.org/TR/2001/REC-SVG-20010904/DTD/svg10.dtd">
<svg version="1.0" xmlns="http://www.w3.org/2000/svg"
 width="286.000000pt" height="286.000000pt" viewBox="0 0 286.000000 286.000000"
 preserveAspectRatio="xMidYMid meet">
<metadata>
Created by potrace 1.11, written by Peter Selinger 2001-2013
</metadata>
<g transform="translate(0.000000,286.000000) scale(0.100000,-0.100000)"
fill="#000000" stroke="none">
<path d="M1205 2744 c-47 -72 -164 -194 -186 -194 -6 0 4 20 22 45 37 52 46
123 18 151 -19 18 -22 15 -62 -45 -13 -20 -65 -64 -125 -103 -56 -38 -102 -73
-102 -78 0 -6 -8 -10 -18 -10 -10 0 -37 -20 -61 -44 -42 -42 -44 -43 -71 -29
-16 7 -73 20 -126 28 -81 13 -103 20 -126 42 l-28 27 0 -28 c0 -15 5 -36 10
-47 16 -29 -5 -23 -30 8 -12 15 -24 40 -27 56 -8 37 -23 30 -51 -23 -19 -36
-22 -54 -17 -93 6 -47 5 -47 -20 -41 -32 8 -32 -9 0 -30 28 -18 43 -51 69
-148 13 -48 29 -80 56 -110 20 -24 36 -47 34 -53 -1 -5 -5 -28 -9 -49 -6 -38
-7 -39 -19 -15 -6 13 -19 25 -27 27 -14 2 -17 -16 -23 -121 -3 -69 -3 -133 1
-142 5 -15 1 -14 -25 5 -18 13 -34 21 -37 19 -2 -3 4 -34 15 -70 11 -35 20
-73 19 -84 0 -19 -1 -18 -11 3 -19 37 -31 25 -25 -25 2 -27 8 -57 12 -68 5
-16 3 -15 -13 5 -51 62 -37 -55 14 -131 28 -39 32 -50 17 -46 -10 3 -27 8 -38
11 -11 3 -27 1 -35 -4 -13 -9 -12 -13 5 -26 11 -8 27 -19 35 -24 8 -5 11 -12
7 -16 -4 -4 -13 -2 -19 4 -12 12 -58 17 -58 7 0 -3 9 -18 20 -33 11 -15 29
-51 40 -80 l21 -54 -31 7 c-38 8 -38 -3 -1 -39 31 -30 97 -153 87 -163 -3 -3
-19 8 -35 26 -37 39 -42 39 -34 -1 10 -55 55 -128 96 -157 29 -20 48 -46 73
-100 32 -70 33 -73 14 -78 -28 -7 -25 -20 6 -27 41 -11 76 -37 65 -50 -9 -11
-14 -38 -12 -68 2 -26 48 -75 78 -83 15 -3 51 -29 81 -56 99 -90 238 -172 382
-223 87 -32 202 -42 300 -28 47 7 72 6 94 -3 21 -9 38 -10 55 -4 16 6 42 6 73
-1 72 -15 221 -12 292 6 136 35 355 160 458 263 25 25 59 56 74 67 25 19 29
29 30 75 2 57 4 59 67 84 43 18 49 35 11 35 l-25 0 19 25 c11 13 29 49 42 79
12 31 30 58 40 61 35 11 89 83 106 140 9 31 13 59 11 62 -3 3 -20 -11 -38 -31
-17 -20 -34 -34 -37 -32 -9 9 55 129 88 164 37 40 38 54 5 46 -39 -10 -37 -2
43 159 8 16 -37 6 -63 -15 -18 -14 -26 -17 -23 -7 2 8 21 25 41 38 20 13 34
28 31 32 -7 12 -61 11 -85 -1 -27 -15 -24 -7 15 45 47 61 65 171 22 136 -12
-10 -13 -3 -9 49 6 63 -8 84 -23 33 -4 -17 -9 -22 -11 -13 -2 8 5 46 16 85 11
38 17 72 15 74 -3 3 -14 -1 -25 -8 -12 -7 -22 -11 -24 -9 -2 2 -7 63 -11 136
-6 114 -9 132 -23 130 -9 -2 -21 -18 -26 -36 -11 -31 -11 -30 -23 38 l-12 70
35 55 c22 34 42 83 52 127 13 58 23 79 50 105 40 38 42 47 7 39 -25 -7 -25 -6
-19 38 7 47 -16 118 -48 145 -15 12 -17 11 -17 -11 0 -28 -37 -89 -58 -96 -11
-3 -12 0 -3 16 14 26 14 72 1 72 -5 0 -10 -4 -10 -10 0 -21 -53 -42 -144 -56
-52 -7 -106 -19 -120 -25 -22 -10 -29 -8 -62 19 -21 17 -41 29 -44 27 -4 -3
-16 5 -26 17 -11 11 -55 45 -99 74 -88 58 -131 99 -137 129 -5 29 -39 25 -57
-6 -13 -24 -13 -31 3 -73 10 -26 29 -60 43 -76 38 -46 13 -35 -50 21 -61 54
-133 142 -161 197 -24 46 -36 40 -36 -19 0 -58 17 -126 37 -150 7 -8 13 -22
13 -30 -1 -9 -8 -6 -21 10 -24 30 -33 22 -25 -21 8 -45 41 -106 79 -145 43
-45 22 -42 -25 4 -29 28 -38 33 -38 20 0 -31 37 -92 92 -152 39 -43 47 -56 30
-51 -37 12 -26 -11 32 -70 52 -52 54 -54 28 -54 -15 0 -42 9 -60 20 -42 26
-60 26 -37 0 18 -20 17 -20 -72 -20 l-90 0 -5 248 c-5 226 -8 253 -28 299 -12
28 -35 63 -51 79 l-30 28 -24 -29 c-13 -17 -34 -50 -47 -75 -20 -42 -22 -61
-26 -297 l-4 -253 -91 0 -90 0 23 25 c30 32 20 43 -17 18 -30 -21 -86 -43
-111 -43 -8 0 6 16 31 35 67 51 115 125 70 108 -10 -4 3 17 29 45 51 57 105
155 88 160 -5 2 -22 -10 -36 -27 -41 -49 -48 -36 -9 15 41 53 65 106 65 140 0
31 -6 30 -35 -3 -29 -34 -33 -16 -5 20 36 46 61 207 31 207 -4 0 -29 -34 -56
-76z m-419 -985 c4 -8 9 -8 17 0 20 20 30 11 12 -9 -23 -25 -6 -52 19 -31 11
9 16 9 22 0 12 -20 -23 -36 -119 -54 -51 -9 -110 -23 -132 -30 -21 -8 -41 -12
-43 -10 -10 9 95 98 142 120 58 27 72 30 82 14z m1360 -25 c64 -30 163 -108
152 -119 -2 -2 -39 5 -83 15 -44 11 -107 25 -140 32 -50 11 -61 17 -63 36 -2
12 2 22 8 22 6 0 15 11 20 25 5 14 14 25 20 25 6 0 45 -16 86 -36z m-1293
-216 c-1 -51 -2 -119 -3 -150 l0 -57 -25 25 c-28 28 -46 25 -38 -7 5 -20 3
-20 -43 -12 -27 4 -77 8 -111 8 -35 -1 -60 2 -55 6 4 4 43 30 87 58 44 28 90
58 103 67 34 23 62 74 62 111 0 17 6 34 13 36 6 3 12 6 12 6 0 1 -1 -41 -2
-91z m1183 41 c0 -13 1 -32 2 -41 3 -30 52 -76 135 -128 145 -89 144 -85 12
-86 -107 -1 -115 1 -109 18 8 25 -14 23 -43 -4 l-23 -21 0 147 c0 114 3 147
13 143 6 -2 12 -15 13 -28z m-1296 -3 c-8 -8 -49 -26 -90 -39 -41 -14 -84 -28
-95 -32 -16 -6 -18 -5 -9 5 11 11 178 79 199 80 5 0 3 -6 -5 -14z m1465 -32
c53 -20 93 -39 91 -41 -10 -11 -196 58 -196 72 0 8 7 6 105 -31z m-1356 -360
c-6 -8 -25 -14 -41 -14 -18 0 -28 -5 -26 -12 4 -11 -62 -78 -77 -78 -4 0 -5 9
-2 20 7 27 -7 25 -60 -5 -23 -14 -43 -22 -43 -17 0 4 40 27 89 50 63 30 96 52
112 74 12 18 29 39 38 46 14 11 16 9 19 -18 2 -17 -2 -38 -9 -46z m1203 16
c15 -27 86 -80 106 -80 5 0 7 -11 4 -25 -2 -14 -6 -25 -9 -25 -2 0 -22 14 -43
31 -25 21 -37 36 -33 47 5 12 1 14 -18 9 -34 -9 -67 24 -61 63 3 24 7 27 21
18 9 -6 24 -23 33 -38z m-1294 34 c-4 -3 -41 -14 -84 -25 -42 -10 -101 -32
-130 -48 -62 -33 -69 -27 -20 17 31 27 65 43 121 55 30 7 119 8 113 1z m1529
-36 c30 -13 83 -57 83 -69 0 -4 -19 3 -42 16 -24 13 -79 33 -123 45 -44 11
-84 23 -90 25 -23 11 146 -6 172 -17z m-1382 -145 c15 -36 15 -38 -9 -61 l-24
-25 3 59 c5 81 7 83 30 27z m1080 15 c2 -7 5 -39 8 -71 l4 -57 -23 21 c-32 30
-38 55 -24 90 13 30 28 38 35 17z m-1395 -1 c0 -2 -16 -19 -37 -38 -37 -35
-37 -23 0 19 18 19 37 29 37 19z m490 -232 c17 -20 104 -68 163 -90 54 -20 61
-35 16 -35 -29 0 -30 -2 -27 -37 l3 -38 58 -3 58 -3 -3 -36 c-3 -34 -5 -36
-87 -69 -47 -19 -88 -34 -93 -34 -4 0 -8 30 -8 66 0 75 -2 75 -83 40 -38 -17
-39 -17 -32 4 9 27 -7 25 -35 -5 -13 -14 -27 -25 -32 -25 -17 0 -7 24 32 72
40 51 45 69 34 127 -8 41 -20 39 -28 -4 -5 -27 -19 -44 -56 -72 -33 -25 -56
-51 -67 -80 -20 -48 -37 -58 -27 -15 15 64 56 134 112 191 61 63 81 72 102 46z
m808 -79 c62 -65 84 -95 95 -133 18 -61 10 -77 -13 -26 -10 22 -40 59 -68 82
-32 27 -52 53 -56 72 -7 38 -22 37 -30 -2 -10 -53 -7 -63 35 -119 41 -55 38
-82 -5 -41 -26 25 -41 27 -32 5 7 -17 -16 -13 -67 13 -15 7 -31 11 -36 9 -5
-3 -11 -30 -13 -61 -3 -30 -7 -58 -11 -61 -3 -4 -46 9 -94 29 -86 34 -88 36
-88 68 0 32 2 34 35 37 73 5 80 10 80 47 0 32 -2 35 -30 35 -43 0 -37 15 13
30 53 15 124 51 157 79 14 11 30 20 36 21 6 0 48 -38 92 -84z m-528 -405 c0
-10 3 -33 6 -50 7 -31 6 -31 -22 -21 -20 8 -41 8 -76 -1 -43 -10 -51 -9 -68 6
-11 10 -20 22 -20 26 0 9 123 50 173 58 4 0 7 -7 7 -18z m250 -15 c81 -24 85
-28 52 -59 l-28 -27 -39 20 c-43 22 -67 25 -93 11 -15 -8 -17 -3 -14 39 l4 47
31 -7 c18 -4 57 -15 87 -24z"/>
</g>
</svg>
